<svg width="100" height="100" viewBox="0 0 100 100" fill="none" xmlns="http://www.w3.org/2000/svg">
<rect width="100" height="100" rx="10" fill="#1D1D1D" fill-opacity="0.1"/>
<path d="M25.625 40.625H74.375M25.625 42.5H74.375M33.125 55.625H48.125M33.125 61.25H40.625M31.25 68.75H68.75C70.2418 68.75 71.6726 68.1574 72.7275 67.1025C73.7824 66.0476 74.375 64.6168 74.375 63.125V36.875C74.375 35.3832 73.7824 33.9524 72.7275 32.8975C71.6726 31.8426 70.2418 31.25 68.75 31.25H31.25C29.7582 31.25 28.3274 31.8426 27.2725 32.8975C26.2176 33.9524 25.625 35.3832 25.625 36.875V63.125C25.625 64.6168 26.2176 66.0476 27.2725 67.1025C28.3274 68.1574 29.7582 68.75 31.25 68.75Z" stroke="currentColor" stroke-width="1.5" stroke-linecap="round" stroke-linejoin="round"/>
</svg>
